<?xml version="1.0" standalone="no"?><!DOCTYPE svg PUBLIC "-//W3C//DTD SVG 1.1//EN" "http://www.w3.org/Graphics/SVG/1.1/DTD/svg11.dtd"><svg t="1686723383279" class="icon" viewBox="0 0 1024 1024" version="1.1" xmlns="http://www.w3.org/2000/svg" p-id="4487" xmlns:xlink="http://www.w3.org/1999/xlink" width="128" height="128"><path d="M324.1 118.6c-142 0-258.4 115.4-258.4 280.3 0 54.4 12.5 105.4 34.4 149.3 44.5 89.3 222.7 275.1 222.7 275.1s170.2-180.2 216-262.5c26-46.6 41-102.2 41-161.9 0.1-164.9-113.7-280.3-255.7-280.3z m-1.4 443.7c-92.3 0-167.1-74.8-167.1-167.1s74.8-167.1 167.1-167.1S489.8 303 489.8 395.3s-74.8 167-167.1 167zM845.2 178.6c-63.9 0-116.3 52-116.3 126.2 0 24.5 5.6 47.4 15.5 67.2 20 40.2 100.3 123.9 100.3 123.9s76.7-81.2 97.3-118.2c11.7-21 18.5-46 18.5-72.9-0.1-74.2-51.4-126.2-115.3-126.2z m-0.6 199.8c-41.5 0-75.2-33.7-75.2-75.2s33.7-75.2 75.2-75.2 75.2 33.7 75.2 75.2-33.7 75.2-75.2 75.2zM867.2 545l-45.4-1.2c0.5-17.7-0.6-28.7-0.6-28.8l45.2-4.8c0 0.6 1.4 13.8 0.8 34.8zM468.2 913c-17.7-1.9-34.5-5.6-52.3-9.6-3.9-0.9-7.8-1.8-11.8-2.6l9.8-44.4c4.1 0.9 8.1 1.8 12.1 2.7 17.2 3.9 32 7.2 47.1 8.8l-4.9 45.1z m69.5-3.8l-9.2-44.5c16.7-3.5 35.1-9.2 56.3-17.5l16.6 42.3c-23.7 9.3-44.5 15.7-63.7 19.7z m122.6-45.8l-19.8-40.9c6.5-3.2 13.3-6.5 20.3-10 11.2-5.7 22-11.9 32-18.7l25.2 37.8c-11.6 7.7-23.9 14.9-36.7 21.4-7.1 3.6-14.2 7.1-21 10.4zM770 788.6l-32.5-31.8c13.4-13.7 25.5-29 35.8-45.5l38.5 24.2c-12.1 19.2-26.1 37-41.8 53.1z m71.8-113.2l-42.5-16.2c6.8-17.9 12.2-36.9 16-56.6l44.6 8.6c-4.2 22.2-10.4 43.8-18.1 64.2zM344.3 890.4c-9.9-1.1-20.1-2-30.4-2.5l2.5-45.4c11.2 0.6 22.3 1.5 33 2.7l-5.1 45.2z" p-id="4488" fill="#409eff"></path></svg>