<?xml version="1.0" standalone="no"?><!DOCTYPE svg PUBLIC "-//W3C//DTD SVG 1.1//EN" "http://www.w3.org/Graphics/SVG/1.1/DTD/svg11.dtd"><svg t="1681528017844" class="icon" viewBox="0 0 1024 1024" version="1.1" xmlns="http://www.w3.org/2000/svg" p-id="2830" xmlns:xlink="http://www.w3.org/1999/xlink" width="48" height="48"><path d="M405.333333 320a128 128 0 0 1 128 128v42.666667a128 128 0 1 1-256 0v-42.666667a128 128 0 0 1 128-128z m-125.738666 286.08A170.218667 170.218667 0 0 0 405.333333 661.333333a170.218667 170.218667 0 0 0 125.738667-55.253333A278.4 278.4 0 0 1 661.333333 746.453333V768a42.666667 42.666667 0 0 1-42.666666 42.666667H192a42.666667 42.666667 0 0 1-42.666667-42.666667v-21.525333a278.4 278.4 0 0 1 130.261334-140.394667z m278.101333-38.464a169.813333 169.813333 0 0 0 18.261333-72.661333c1.450667-0.746667 2.901333-1.493333 4.373334-2.197334A148.821333 148.821333 0 0 0 682.666667 533.333333a148.821333 148.821333 0 0 0 102.336-40.576A235.605333 235.605333 0 0 1 896 606.101333V618.666667a42.666667 42.666667 0 0 1-42.666667 42.666666h-186.688a310.741333 310.741333 0 0 0-108.949333-93.717333zM682.666667 234.666667a106.666667 106.666667 0 0 1 106.666666 106.666666v42.666667a106.666667 106.666667 0 0 1-213.333333 0v-42.666667a106.666667 106.666667 0 0 1 106.666667-106.666666z m-411.52 24.896c33.450667-20.373333 68.288-35.413333 104.576-45.141334 36.266667-9.728 73.984-14.122667 113.109333-13.184a21.333333 21.333333 0 0 1 20.096 15.786667l1.472 5.482667a15.786667 15.786667 0 0 1-15.424 19.84 397.269333 397.269333 0 0 0-108.224 13.290666 397.290667 397.290667 0 0 0-100.352 42.602667 15.765333 15.765333 0 0 1-23.274667-9.472l-1.472-5.482667a21.333333 21.333333 0 0 1 9.514667-23.722666z" fill="#0000f2" p-id="2831"></path></svg>